<svg class="plot-d6a7b5" fill="currentColor" font-family="system-ui, sans-serif" font-size="10" text-anchor="middle" width="665" height="300" viewBox="0 0 665 300"><style>:where(.plot-d6a7b5) {
  --plot-background: white;
  display: block;
  height: auto;
  height: intrinsic;
  max-width: 100%;
}
:where(.plot-d6a7b5 text),
:where(.plot-d6a7b5 tspan) {
  white-space: pre;
}</style><g aria-label="y-grid" aria-hidden="true" stroke="currentColor" stroke-opacity="0.1"><line x1="40" x2="645" y1="225.20908435472245" y2="225.20908435472245"></line><line x1="40" x2="645" y1="180.14780100937273" y2="180.14780100937273"></line><line x1="40" x2="645" y1="135.08651766402306" y2="135.08651766402306"></line><line x1="40" x2="645" y1="90.02523431867338" y2="90.02523431867338"></line><line x1="40" x2="645" y1="44.96395097332371" y2="44.96395097332371"></line></g><g aria-label="y-axis tick" aria-hidden="true" fill="none" stroke="currentColor"><path transform="translate(40,180.14780100937273)" d="M0,0L-6,0"></path><path transform="translate(40,90.02523431867338)" d="M0,0L-6,0"></path></g><g aria-label="y-axis tick label" text-anchor="end" font-variant="tabular-nums" transform="translate(-9,0)"><text y="0.32em" transform="translate(40,180.14780100937273)">20</text><text y="0.32em" transform="translate(40,90.02523431867338)">40</text></g><g aria-label="y-axis label" transform="translate(-37,0)"><text y="0.71em" transform="translate(40,145) rotate(-90)">% infected</text></g><g aria-label="x-axis tick" aria-hidden="true" fill="none" stroke="currentColor"><path transform="translate(40,270)" d="M0,0L0,6"></path><path transform="translate(135.69865251856828,270)" d="M0,0L0,6"></path><path transform="translate(191.67877561147495,270)" d="M0,0L0,6"></path><path transform="translate(231.39730503713656,270)" d="M0,0L0,6"></path><path transform="translate(262.20538992572693,270)" d="M0,0L0,6"></path><path transform="translate(287.37742813004326,270)" d="M0,0L0,6"></path><path transform="translate(308.660083182283,270)" d="M0,0L0,6"></path><path transform="translate(327.09595755570484,270)" d="M0,0L0,6"></path><path transform="translate(343.35755122294995,270)" d="M0,0L0,6"></path><path transform="translate(357.9040424442952,270)" d="M0,0L0,6"></path><path transform="translate(453.60269496286355,270)" d="M0,0L0,6"></path><path transform="translate(509.58281805577025,270)" d="M0,0L0,6"></path><path transform="translate(549.3013474814318,270)" d="M0,0L0,6"></path><path transform="translate(580.1094323700222,270)" d="M0,0L0,6"></path><path transform="translate(605.2814705743384,270)" d="M0,0L0,6"></path><path transform="translate(626.5641256265783,270)" d="M0,0L0,6"></path><path transform="translate(645,270)" d="M0,0L0,6"></path></g><g aria-label="x-axis tick label" font-variant="tabular-nums" transform="translate(0,9)"><text y="0.71em" transform="translate(40,270)">1</text><text y="0.71em" transform="translate(135.69865251856828,270)">2</text><text y="0.71em" transform="translate(191.67877561147495,270)">3</text><text y="0.71em" transform="translate(231.39730503713656,270)">4</text><text y="0.71em" transform="translate(262.20538992572693,270)"></text><text y="0.71em" transform="translate(287.37742813004326,270)"></text><text y="0.71em" transform="translate(308.660083182283,270)"></text><text y="0.71em" transform="translate(327.09595755570484,270)"></text><text y="0.71em" transform="translate(343.35755122294995,270)"></text><text y="0.71em" transform="translate(357.9040424442952,270)">10</text><text y="0.71em" transform="translate(453.60269496286355,270)">20</text><text y="0.71em" transform="translate(509.58281805577025,270)">30</text><text y="0.71em" transform="translate(549.3013474814318,270)">40</text><text y="0.71em" transform="translate(580.1094323700222,270)"></text><text y="0.71em" transform="translate(605.2814705743384,270)"></text><text y="0.71em" transform="translate(626.5641256265783,270)"></text><text y="0.71em" transform="translate(645,270)"></text></g><g aria-label="x-axis label" transform="translate(0,27)"><text transform="translate(342.5,270)">timestep</text></g><g aria-label="line" fill="none" stroke="currentColor" stroke-width="1.5" stroke-linejoin="round" stroke-linecap="round" stroke-dasharray="5,3"><path d="M40,269.877L135.699,269.391L191.679,268.709L231.397,267.856L262.205,266.649L287.377,264.746L308.66,261.719L327.096,256.992L343.358,249.691L357.904,238.8L371.063,223.375L383.076,203.277L394.127,179.896L404.359,156.552L413.884,137.33L422.795,124.887L431.165,119.447L439.056,119.386L446.521,122.479L453.603,127.06L460.339,132.053L466.762,136.809L472.899,141.084L478.775,144.786L484.411,147.863L489.826,150.378L495.036,152.368L500.057,153.893L504.902,155.027L509.583,155.798L514.11,156.306L518.493,156.614L522.742,156.732L526.863,156.771L530.865,156.687L534.755,156.568L538.538,156.423L542.22,156.253L545.806,156.119L549.301,155.934L552.711,155.832L556.038,155.723L559.286,155.622L562.46,155.577L565.563,155.516L568.597,155.501L571.567,155.449L574.473,155.443L577.32,155.447L580.109,155.44L582.843,155.434L585.524,155.428L588.154,155.45L590.735,155.45L593.268,155.488L595.756,155.488L598.2,155.485L600.601,155.485L602.961,155.485L605.281,155.485L607.564,155.485L609.809,155.485L612.018,155.485L614.192,155.485L616.332,155.485L618.44,155.485L620.517,155.485L622.562,155.485L624.578,155.485L626.564,155.485L628.523,155.485L630.454,155.485L632.358,155.485L634.236,155.485L636.09,155.485L637.918,155.485L639.723,155.485L641.505,155.485L643.263,155.485L645,155.485"></path></g><g aria-label="line" fill="none" stroke-width="1.5" stroke-linejoin="round" stroke-linecap="round"><path stroke="rgb(252, 170, 142)" d="M40,269.82L135.699,268.513L191.679,267.161L231.397,265.809L262.205,264.007L287.377,261.213L308.66,256.842L327.096,250.128L343.358,239.854L357.904,224.578L371.063,202.904L383.076,174.38L394.127,140.404L404.359,104.895L413.884,72.992L422.795,48.569L431.165,32.617L439.056,23.965L446.521,20.406L453.603,20L460.339,21.352L466.762,23.515L472.899,25.993L478.775,28.562L484.411,31.04L489.826,33.338L495.036,35.411L500.057,37.168L504.902,38.655L509.583,39.827L514.11,40.773L518.493,41.449L522.742,41.9L526.863,42.17L530.865,42.35L534.755,42.395L538.538,42.395L542.22,42.305L545.806,42.215L549.301,42.08L552.711,41.99L556.038,41.9L559.286,41.765L562.46,41.72L565.563,41.629L568.597,41.584L571.567,41.539L574.473,41.494L577.32,41.494L580.109,41.494L582.843,41.449L585.524,41.449L588.154,41.449L590.735,41.449L593.268,41.494L595.756,41.494L598.2,41.494L600.601,41.494L602.961,41.494L605.281,41.494L607.564,41.494L609.809,41.494L612.018,41.494L614.192,41.494L616.332,41.494L618.44,41.494L620.517,41.494L622.562,41.494L624.578,41.494L626.564,41.494L628.523,41.494L630.454,41.494L632.358,41.494L634.236,41.494L636.09,41.494L637.918,41.494L639.723,41.494L641.505,41.494L643.263,41.494L645,41.494"></path><path stroke="rgb(247, 93, 67)" d="M40,269.91L135.699,269.594L191.679,269.189L231.397,268.693L262.205,267.972L287.377,266.891L308.66,265.088L327.096,262.249L343.358,257.743L357.904,250.849L371.063,240.665L383.076,226.381L394.127,208.086L404.359,187.132L413.884,166.359L422.795,148.785L431.165,136.438L439.056,129.454L446.521,126.66L453.603,126.705L460.339,128.417L466.762,130.896L472.899,133.735L478.775,136.574L484.411,139.277L489.826,141.756L495.036,143.919L500.057,145.766L504.902,147.253L509.583,148.47L514.11,149.371L518.493,150.047L522.742,150.497L526.863,150.813L530.865,150.948L534.755,150.993L538.538,150.993L542.22,150.948L545.806,150.858L549.301,150.723L552.711,150.633L556.038,150.497L559.286,150.407L562.46,150.362L565.563,150.272L568.597,150.227L571.567,150.182L574.473,150.137L577.32,150.137L580.109,150.137L582.843,150.092L585.524,150.092L588.154,150.092L590.735,150.092L593.268,150.137L595.756,150.137L598.2,150.137L600.601,150.137L602.961,150.137L605.281,150.137L607.564,150.137L609.809,150.137L612.018,150.137L614.192,150.137L616.332,150.137L618.44,150.137L620.517,150.137L622.562,150.137L624.578,150.137L626.564,150.137L628.523,150.137L630.454,150.137L632.358,150.137L634.236,150.137L636.09,150.137L637.918,150.137L639.723,150.137L641.505,150.137L643.263,150.137L645,150.137"></path><path stroke="rgb(198, 26, 29)" d="M40,269.865L135.699,269.865L191.679,269.82L231.397,269.685L262.205,269.504L287.377,269.099L308.66,268.513L327.096,267.477L343.358,265.809L357.904,263.151L371.063,258.96L383.076,252.696L394.127,243.955L404.359,232.824L413.884,220.433L422.795,208.536L431.165,198.983L439.056,192.81L446.521,189.836L453.603,189.295L460.339,190.332L466.762,192.269L472.899,194.522L478.775,196.911L484.411,199.119L489.826,201.146L495.036,202.949L500.057,204.436L504.902,205.652L509.583,206.644L514.11,207.41L518.493,207.996L522.742,208.356L526.863,208.627L530.865,208.807L534.755,208.852L538.538,208.852L542.22,208.807L545.806,208.762L549.301,208.672L552.711,208.627L556.038,208.536L559.286,208.446L562.46,208.401L565.563,208.356L568.597,208.311L571.567,208.266L574.473,208.266L577.32,208.221L580.109,208.221L582.843,208.221L585.524,208.221L588.154,208.221L590.735,208.221L593.268,208.221L595.756,208.221L598.2,208.221L600.601,208.221L602.961,208.221L605.281,208.221L607.564,208.221L609.809,208.221L612.018,208.221L614.192,208.221L616.332,208.221L618.44,208.221L620.517,208.221L622.562,208.221L624.578,208.221L626.564,208.221L628.523,208.221L630.454,208.221L632.358,208.221L634.236,208.221L636.09,208.221L637.918,208.221L639.723,208.221L641.505,208.221L643.263,208.221L645,208.221"></path><path stroke="rgb(103, 0, 13)" d="M40,269.91L135.699,269.955L191.679,270L231.397,269.955L262.205,269.865L287.377,269.73L308.66,269.459L327.096,269.009L343.358,268.288L357.904,267.071L371.063,265.178L383.076,262.34L394.127,258.194L404.359,252.606L413.884,245.847L422.795,238.637L431.165,232.058L439.056,227.147L446.521,224.218L453.603,223.001L460.339,223.136L466.762,224.037L472.899,225.389L478.775,226.876L484.411,228.363L489.826,229.715L495.036,230.977L500.057,232.013L504.902,232.915L509.583,233.59L514.11,234.176L518.493,234.582L522.742,234.897L526.863,235.123L530.865,235.258L534.755,235.348L538.538,235.393L542.22,235.393L545.806,235.348L549.301,235.303L552.711,235.258L556.038,235.213L559.286,235.168L562.46,235.123L565.563,235.078L568.597,235.078L571.567,235.032L574.473,235.032L577.32,235.032L580.109,234.987L582.843,234.987L585.524,234.987L588.154,234.987L590.735,234.987L593.268,234.987L595.756,234.987L598.2,234.987L600.601,234.987L602.961,234.987L605.281,234.987L607.564,234.987L609.809,234.987L612.018,234.987L614.192,234.987L616.332,234.987L618.44,234.987L620.517,234.987L622.562,234.987L624.578,234.987L626.564,234.987L628.523,234.987L630.454,234.987L632.358,234.987L634.236,234.987L636.09,234.987L637.918,234.987L639.723,234.987L641.505,234.987L643.263,234.987L645,234.987"></path></g><g aria-label="tip" fill="var(--plot-background)" stroke="currentColor" pointer-events="none" text-anchor="start"></g></svg>
